<svg width="349" height="351" viewBox="0 0 349 351" fill="none" xmlns="http://www.w3.org/2000/svg">
<path fill-rule="evenodd" clip-rule="evenodd" d="M156.326 93.9224C163.014 96.4779 169.266 97.18 171.93 95.9736C178.61 92.9486 174.77 67.4101 167.589 58.3412C160.409 49.2723 131.811 49.8102 133.91 69.917C134.639 76.8954 138.637 82.533 143.826 86.7933L142.409 123.891L164.828 119.938L156.326 93.9224Z" fill="#B28B67"/>
<path fill-rule="evenodd" clip-rule="evenodd" d="M152.774 49.0421C149.735 49.0817 141.721 50.1536 140.253 50.4125C139.316 50.5778 138.337 50.9698 137.631 50.2124C137.053 49.5922 137.011 48.3784 136.732 47.5895C136.408 46.6732 136.019 45.7807 135.629 44.891C134.518 42.3593 133.1 40.0145 131.32 37.892C127.981 33.9101 123.621 31.0985 118.535 29.9121C112.917 28.6022 106.916 29.1337 101.376 30.5771C95.4484 32.1215 90.3527 35.0534 85.0025 37.9103C79.9039 40.6327 74.3599 42.328 68.549 42.4622C62.6943 42.5974 57.8452 40.2872 52.5225 38.2215C47.0735 36.1067 41.1035 35.1479 35.3627 36.6225C30.0039 37.9992 25.3898 41.1105 21.4224 44.8795C17.7105 48.4058 14.8334 52.3683 13.707 57.4298C12.4952 62.8745 13.4791 68.4429 17.7334 72.3157C23.8999 77.9294 33.5167 77.9666 41.2415 76.4322C45.7097 75.545 49.9712 73.9549 53.9449 71.7287C59.2442 68.7596 63.5346 64.5545 68.3393 60.9093C70.5942 59.1987 72.9725 57.701 75.526 56.474C78.0038 55.283 80.5122 54.4948 83.1482 55.643C85.9368 56.8578 88.4608 58.089 91.4998 58.6213C94.4152 59.1321 97.4156 59.1763 100.331 58.6391C106.003 57.5939 111.293 54.8485 116.602 52.698C120.931 50.9446 125.576 49.1389 130.325 49.2532C132.307 49.301 135.242 49.6033 136.282 51.4573C125.017 55.6034 122.968 70.7026 128.098 80.6172C130.867 85.9684 142.675 90.7127 146.287 87.0058C148.576 84.6574 146.548 82.4618 145.23 81.0087C142.706 78.2259 141.322 74.3237 144.587 71.5007C147.403 69.0659 151.5 72.9463 151.562 72.9303C152.415 72.71 159.15 67.1919 163.219 60.1549C168.353 59.5582 168.537 56.094 166.844 53.586C165.151 51.078 156.974 48.9878 152.774 49.0421Z" fill="#191847"/>
<path fill-rule="evenodd" clip-rule="evenodd" d="M138.759 200.529C144.481 223.151 264.672 271.527 265.637 273.309C266.281 274.497 245.999 359.043 245.999 359.043L256.113 361.048C256.113 361.048 293.797 268.651 289.545 260.263C283.459 248.254 190.803 191.604 190.803 191.604L138.759 200.529Z" fill="#B28B67"/>
<path fill-rule="evenodd" clip-rule="evenodd" d="M246.405 346.781L262.852 349.675C288.966 307.198 296.396 274.64 291.344 259.609C286.292 244.579 192.916 191.038 192.916 191.038L137.66 200.781C148.904 253.522 256.218 275.178 257.96 277.203C259.701 279.228 250.394 303.709 246.405 346.781Z" fill="#2F3676"/>
<path fill-rule="evenodd" clip-rule="evenodd" d="M151.21 198.334L123.367 322.525L93.1976 428.688L104.384 426.715L189.13 191.648L151.21 198.334Z" fill="#997659"/>
<path fill-rule="evenodd" clip-rule="evenodd" d="M93.8969 407.616L119.575 407.889C133.817 376.276 193.844 246.365 193.163 190.937L137.827 200.694C115.244 244.832 107.158 375.694 93.8969 407.616Z" fill="#5C63AB"/>
<path fill-rule="evenodd" clip-rule="evenodd" d="M263.203 134.09L232.086 154.871L245.293 166.788L267.137 142.939C279.346 138.393 284.847 135.368 283.639 133.862C282.62 132.593 281.171 132.767 279.837 132.927C278.798 133.051 277.828 133.168 277.184 132.587C275.715 131.261 277.835 125.99 280.061 121.075C282.287 116.159 279.504 116.813 277.951 117.628C272.988 121.665 268.072 127.152 263.203 134.09ZM116.174 183.43L96.4294 183.004C89.5121 219.429 85.098 239.499 83.1873 243.216C81.7861 245.941 71.623 254.115 64.5881 258.765C61.7644 260.631 62.8771 263.102 63.9198 263.772C70.4972 267.995 75.4334 265.238 80.8067 262.236C82.3623 261.368 83.9545 260.478 85.6338 259.732C89.9804 257.8 91.7764 259.897 93.4738 261.878C94.9765 263.632 96.402 265.296 99.4517 263.994C99.1968 263.395 98.8957 262.726 98.5706 262.004C96.4695 257.338 93.3708 250.457 95.3455 245.793C96.3588 243.399 103.302 222.612 116.174 183.43Z" fill="#B28B67"/>
<path fill-rule="evenodd" clip-rule="evenodd" d="M154.754 99.0317L162.56 96.2298C183.097 110.168 197.467 149.822 210.107 153.177C222.057 156.35 236.844 148.633 254.28 138.66L262.23 150.409C248.547 171.713 215.243 193.547 199.079 187.285C173.236 177.274 158.947 127.762 154.754 99.0317Z" fill="#DB2721"/>
<path fill-rule="evenodd" clip-rule="evenodd" d="M137.523 206.514C137.523 206.514 185.939 197.976 208.751 193.954C212.006 193.38 210.563 188.783 209.674 186.491C199.411 160.043 173.005 134.239 166.127 95.2279L145.012 95.6248C132.844 125.988 132.908 160.717 137.523 206.514Z" fill="#DDE3E9"/>
<path fill-rule="evenodd" clip-rule="evenodd" d="M143.921 95.8171L143.687 95.8585C102.617 132.419 82.5387 181.407 83.4518 242.824L98.8982 243.119C106.754 229.838 115.63 208.805 125.526 180.019C123.857 196.603 123.461 213.379 125.148 228.879L189.265 217.574C196.139 183.977 151.822 94.424 151.822 94.424L147.395 95.2046L143.921 95.8171Z" fill="#FF4133"/>
</svg>
