<svg width="349" height="443" viewBox="0 0 349 443" fill="none" xmlns="http://www.w3.org/2000/svg">
<path fill-rule="evenodd" clip-rule="evenodd" d="M156.326 93.7486C163.014 96.3041 169.266 97.0062 171.93 95.7998C178.61 92.7748 174.77 67.2363 167.589 58.1675C160.409 49.0986 131.811 49.6365 133.91 69.7433C134.639 76.7217 138.637 82.3592 143.826 86.6195L142.409 123.717L164.828 119.764L156.326 93.7486Z" fill="#B28B67"/>
<path fill-rule="evenodd" clip-rule="evenodd" d="M152.774 48.8683C149.735 48.908 141.721 49.9798 140.253 50.2387C139.316 50.4041 138.337 50.796 137.631 50.0387C137.053 49.4185 137.011 48.2046 136.732 47.4158C136.408 46.4995 136.019 45.607 135.629 44.7173C134.518 42.1856 133.1 39.8407 131.32 37.7183C127.981 33.7364 123.621 30.9248 118.535 29.7384C112.917 28.4285 106.916 28.96 101.376 30.4033C95.4484 31.9478 90.3527 34.8796 85.0025 37.7365C79.9039 40.4589 74.3599 42.1542 68.549 42.2884C62.6943 42.4237 57.8452 40.1135 52.5225 38.0478C47.0735 35.933 41.1035 34.9741 35.3627 36.4488C30.0039 37.8255 25.3898 40.9368 21.4224 44.7058C17.7105 48.2321 14.8334 52.1946 13.707 57.2561C12.4952 62.7007 13.4791 68.2691 17.7334 72.1419C23.8999 77.7557 33.5167 77.7928 41.2415 76.2585C45.7097 75.3713 49.9712 73.7812 53.9449 71.5549C59.2442 68.5858 63.5346 64.3808 68.3393 60.7355C70.5942 59.025 72.9725 57.5272 75.526 56.3002C78.0038 55.1092 80.5122 54.3211 83.1482 55.4693C85.9368 56.684 88.4608 57.9152 91.4998 58.4476C94.4152 58.9584 97.4156 59.0025 100.331 58.4653C106.003 57.4202 111.293 54.6747 116.602 52.5243C120.931 50.7709 125.576 48.9652 130.325 49.0795C132.307 49.1273 135.242 49.4296 136.282 51.2836C125.017 55.4296 122.968 70.5289 128.098 80.4434C130.867 85.7947 142.675 90.5389 146.287 86.8321C148.576 84.4837 146.548 82.288 145.23 80.8349C142.706 78.0522 141.322 74.1499 144.587 71.327C147.403 68.8922 151.5 72.7725 151.562 72.7566C152.415 72.5363 159.15 67.0182 163.219 59.9812C168.353 59.3845 168.537 55.9203 166.844 53.4123C165.151 50.9043 156.974 48.814 152.774 48.8683Z" fill="#191847"/>
<path fill-rule="evenodd" clip-rule="evenodd" d="M138.759 200.356C144.481 222.977 264.672 271.354 265.637 273.135C266.281 274.323 245.999 358.869 245.999 358.869L256.113 360.875C256.113 360.875 293.797 268.477 289.545 260.089C283.459 248.081 190.803 191.43 190.803 191.43L138.759 200.356Z" fill="#B28B67"/>
<path fill-rule="evenodd" clip-rule="evenodd" d="M246.405 346.607L262.852 349.501C288.966 307.025 296.396 274.466 291.344 259.435C286.292 244.405 192.916 190.864 192.916 190.864L137.66 200.607C148.904 253.348 256.218 275.005 257.96 277.029C259.701 279.054 250.394 303.535 246.405 346.607Z" fill="#2F3676"/>
<path fill-rule="evenodd" clip-rule="evenodd" d="M245.062 357.156C244.087 356.509 242.75 356.757 242.167 357.772C241.163 359.522 239.804 362.096 239.53 363.646C239.085 366.165 239.071 371.146 239.071 371.146C241.996 371.661 291.65 380.398 291.65 380.398C291.65 380.398 294.895 373.989 290.575 372.673C286.255 371.356 283.411 370.407 283.411 370.407L260.941 355.254C260.474 354.939 259.839 355.071 259.537 355.547L257.323 359.031C257.323 359.031 252.899 360.217 250.343 359.767C248.82 359.499 246.603 358.179 245.062 357.156Z" fill="#E4E4E4"/>
<path fill-rule="evenodd" clip-rule="evenodd" d="M151.21 198.16L123.367 322.352L93.1976 428.514L104.384 426.542L189.13 191.474L151.21 198.16Z" fill="#997659"/>
<path fill-rule="evenodd" clip-rule="evenodd" d="M94.2451 422.648C93.1076 422.373 91.936 423.063 91.7359 424.216C91.3911 426.203 90.9953 429.085 91.2687 430.636C91.7128 433.155 93.4052 437.839 93.4052 437.839C96.3306 437.323 145.988 428.567 145.988 428.567C145.988 428.567 146.844 421.438 142.333 421.677C137.822 421.916 134.824 421.996 134.824 421.996L108.518 415.435C107.971 415.299 107.42 415.64 107.299 416.19L106.411 420.22C106.411 420.22 102.659 422.846 100.103 423.297C98.5792 423.565 96.044 423.082 94.2451 422.648Z" fill="#E4E4E4"/>
<path fill-rule="evenodd" clip-rule="evenodd" d="M93.8969 407.442L119.575 407.715C133.817 376.102 193.844 246.192 193.163 190.763L137.827 200.52C115.244 244.658 107.158 375.521 93.8969 407.442Z" fill="#5C63AB"/>
<path fill-rule="evenodd" clip-rule="evenodd" d="M263.203 133.916L232.086 154.697L245.293 166.615L267.137 142.765C279.346 138.22 284.847 135.194 283.639 133.688C282.62 132.419 281.171 132.593 279.837 132.753C278.798 132.877 277.828 132.994 277.184 132.413C275.715 131.087 277.835 125.816 280.061 120.901C282.287 115.985 279.504 116.64 277.951 117.454C272.988 121.491 268.072 126.978 263.203 133.916ZM116.174 183.256L96.4294 182.83C89.5121 219.255 85.098 239.326 83.1873 243.042C81.7861 245.767 71.623 253.942 64.5881 258.591C61.7644 260.457 62.8771 262.928 63.9198 263.598C70.4972 267.821 75.4334 265.064 80.8067 262.063C82.3623 261.194 83.9545 260.304 85.6338 259.558C89.9804 257.626 91.7764 259.723 93.4738 261.704C94.9765 263.459 96.402 265.123 99.4517 263.821C99.1968 263.221 98.8957 262.552 98.5706 261.831C96.4695 257.164 93.3708 250.283 95.3455 245.619C96.3588 243.226 103.302 222.438 116.174 183.256Z" fill="#B28B67"/>
<path fill-rule="evenodd" clip-rule="evenodd" d="M154.754 98.858L162.56 96.056C183.097 109.995 197.467 149.648 210.107 153.004C222.057 156.176 236.844 148.46 254.28 138.487L262.23 150.235C248.547 171.54 215.243 193.373 199.079 187.111C173.236 177.1 158.947 127.588 154.754 98.858Z" fill="#DB2721"/>
<path fill-rule="evenodd" clip-rule="evenodd" d="M137.523 206.34C137.523 206.34 185.939 197.803 208.751 193.78C212.006 193.207 210.563 188.609 209.674 186.317C199.411 159.869 173.005 134.065 166.127 95.0542L145.012 95.451C132.844 125.814 132.908 160.543 137.523 206.34Z" fill="#DDE3E9"/>
<path fill-rule="evenodd" clip-rule="evenodd" d="M143.921 95.6434L143.687 95.6847C102.617 132.245 82.5387 181.233 83.4518 242.65L98.8982 242.945C106.754 229.665 115.63 208.631 125.526 179.846C123.857 196.429 123.461 213.205 125.148 228.706L189.265 217.4C196.139 183.803 151.822 94.2503 151.822 94.2503L147.395 95.0308L143.921 95.6434Z" fill="#FF4133"/>
</svg>
