<svg width="552" height="803" viewBox="0 0 552 803" fill="none" xmlns="http://www.w3.org/2000/svg">
<path fill-rule="evenodd" clip-rule="evenodd" d="M379.195 191.533C385.346 204.07 393.244 213.315 398.527 215.045C411.775 219.382 438.904 176.852 440.356 154.107C441.809 131.362 400.905 94.5771 378.246 126.847C370.382 138.047 368.824 151.574 370.696 164.645L321.452 217.234L358.016 240.888L379.195 191.533Z" fill="#915B3C"/>
<path fill-rule="evenodd" clip-rule="evenodd" d="M369.086 105.3C368.636 103.324 369.036 101.179 369.47 99.1762C369.921 97.0962 370.398 95.0092 371.086 92.9854C372.459 88.9416 374.914 84.8576 379.021 83.6846C382.315 82.7442 385.854 83.6565 388.699 85.1975C390.595 86.224 392.294 87.688 393.672 89.3998C395.039 91.098 395.818 93.2239 397.048 95.0268C399.419 91.2454 402.466 87.6549 406.309 85.603C410.008 83.6288 413.946 83.7259 417.5 85.3772C421.149 87.0721 423.975 90.0322 425.967 93.6615C426.465 94.5703 426.945 95.4947 427.357 96.4565C427.702 97.2619 428.019 98.1681 428.618 98.7921C429.285 99.488 429.955 99.2712 430.819 99.0095C431.833 98.7026 432.872 98.527 433.909 98.4459C438.493 98.088 443.207 99.7714 445.981 103.558C447.26 105.303 448.214 107.478 448.419 109.759C448.602 111.792 448.007 114.444 448.827 116.308C449.175 117.1 449.92 116.832 450.702 116.783C451.876 116.709 453.049 116.549 454.223 116.498C455.872 116.426 457.492 116.622 459.024 117.168C461.267 117.966 463.909 119.828 462.866 122.848C462.474 123.982 461.668 124.945 460.993 125.906C460.066 127.227 459.136 128.544 458.188 129.848C457.468 130.838 456.747 131.777 455.935 132.682C455.503 133.164 454.568 133.979 454.463 134.675C454.333 135.544 455.878 136.001 456.423 136.387C457.499 137.149 458.487 138.067 459.214 139.217C459.777 140.108 460.273 141.203 460.04 142.359C459.898 143.069 459.486 143.627 459.03 144.157C458.484 144.795 458.389 145.259 458.042 146.034C459.982 146.237 466.139 147.883 465.124 151.055C464.787 152.111 463.671 152.829 462.83 153.36C461.355 154.291 459.747 154.974 458.154 155.586C454.83 156.864 451.356 157.574 447.901 157.867C449.896 160.925 448.354 165.14 444.615 165.827C442.964 166.13 441.412 165.431 440.118 164.507C439.644 164.168 439.059 163.52 438.622 163.359C438.387 163.273 438.057 163.311 437.759 163.146C435.799 162.064 433.96 160.223 432.384 158.602C429.574 155.715 427.444 152.105 426.389 148.022C426.118 146.975 425.8 146.267 424.92 145.711C424.15 145.224 423.267 144.955 422.49 144.48C420.433 143.224 419.226 141.019 417.758 139.121C416.056 141.675 413.586 144.102 411.12 145.795C409.108 147.176 407.17 146.312 405.33 145.356C399.445 142.302 394.231 138.089 388.661 134.497C393.287 139.243 398.541 143.364 402.986 148.301C404.995 150.533 402.135 151.025 400.398 151.525C397.539 152.348 394.837 153.912 392.447 155.854C391.957 150.593 388.713 145.236 383.927 143.659C378.638 141.916 371.574 146.222 371.72 152.698C371.805 156.457 374.241 159.463 376.094 162.254C372.821 163.106 370.437 165.949 367.639 167.834C366.259 168.763 364.537 169.71 362.944 169.314C362.355 169.168 361.775 168.812 361.142 168.975C360.358 169.176 359.901 169.672 359.029 169.716C355.547 169.893 351.837 167.305 351.061 163.634C350.36 160.313 352.835 157.378 355.722 156.339C353.809 153.55 349.963 149.066 353.508 145.56C348.136 141.549 340.207 123.336 351.88 121.326C349.209 116.24 348.979 107.884 354.771 104.396C359.232 101.711 365.062 102.992 369.086 105.3" fill="#191847"/>
<path fill-rule="evenodd" clip-rule="evenodd" d="M176.01 541.036C176.01 541.036 240.662 559.747 287.57 559.747C334.477 559.747 374.709 530.933 374.709 530.933C374.709 530.933 311.441 511.728 270.502 511.728C229.562 511.728 176.01 541.036 176.01 541.036Z" fill="#1F28CF"/>
<path fill-rule="evenodd" clip-rule="evenodd" d="M324.881 577.727C324.466 577.081 324.115 576.378 323.837 575.616C318.075 559.851 225.795 389.779 216.601 358.685H320.496C327.486 382.326 358.947 530.685 363.374 560.284C377.344 606.975 406.107 758.188 409.778 768.663C413.641 779.684 391.907 791.164 386.116 777.616C376.9 756.059 354.943 696.411 345.167 659.991C336.001 625.846 328.538 595.128 324.881 577.727Z" fill="#784931"/>
<path fill-rule="evenodd" clip-rule="evenodd" d="M239.881 598.492C197.692 609.525 43.3729 629.471 32.7829 632.6C21.889 635.818 12.3372 612.584 25.8026 607.551C47.2283 599.542 106.266 581.039 142.06 573.488C170.852 567.415 197.124 562.459 214.762 559.557C213.268 508.29 206.437 385.257 210.914 358.685H302.842C298.549 384.166 262.255 570.093 255.51 588.704C253.369 595.348 246.981 598.284 239.881 598.492V598.492Z" fill="#915B3C"/>
<path fill-rule="evenodd" clip-rule="evenodd" d="M30.0815 604.231C30.3725 603.111 29.7058 601.969 28.5805 601.746C25.0553 601.049 17.9172 599.814 14.3953 600.456C9.60929 601.329 0.70843 604.655 0.70843 604.655C1.68743 610.4 18.3052 707.916 18.3052 707.916C18.3052 707.916 31.8514 709.595 31.399 700.735C30.9466 691.876 30.7955 685.989 30.7955 685.989L43.5062 633.348C43.6368 632.806 43.3053 632.267 42.7671 632.144L34.1797 630.19C34.1797 630.19 29.1915 622.822 28.3362 617.803C27.7151 614.158 29.214 607.567 30.0815 604.231Z" fill="#E4E4E4"/>
<path fill-rule="evenodd" clip-rule="evenodd" d="M382.961 773.062C381.887 772.546 380.587 773.029 380.177 774.147C378.896 777.637 376.506 784.643 376.506 788.324C376.506 793.353 378.125 803 378.125 803C383.763 803 479.461 803 479.461 803C479.461 803 483.411 789.488 474.901 788.411C466.39 787.333 460.761 786.465 460.761 786.465L412.93 764.402C412.41 764.161 411.795 764.407 411.583 764.939L408.241 773.327C408.241 773.327 400.362 777.131 395.437 777.131C391.914 777.131 386.028 774.539 382.961 773.062Z" fill="#E4E4E4"/>
<path fill-rule="evenodd" clip-rule="evenodd" d="M211.211 358.685C211.211 358.685 271.975 340.697 326.199 358.685C338.776 418.059 369.335 441.624 374.709 532.654C313.622 564.06 238.162 510.255 175.278 540.883C157.311 498.042 182.465 394.871 211.211 358.685Z" fill="#2B44FF"/>
<path fill-rule="evenodd" clip-rule="evenodd" d="M442.627 464.91L412.955 398.144L386.733 420.109L424.897 469.824C429.786 494.913 433.818 506.516 436.994 504.634C439.672 503.047 439.777 500.183 439.873 497.545C439.948 495.49 440.017 493.572 441.295 492.502C444.213 490.057 453.45 495.792 461.99 501.622C470.531 507.452 470.132 501.85 469.067 498.586C462.983 487.716 454.169 476.491 442.627 464.91ZM137.201 423.405C145.93 415.047 199.892 321.226 199.892 321.226L234.834 335.275C234.834 335.275 162.256 430.725 157.215 436.326C150.666 443.603 151.728 458.379 152.447 468.398C152.559 469.948 152.662 471.384 152.728 472.661C146.443 473.014 144.98 468.987 143.438 464.742C141.697 459.946 139.854 454.872 130.847 455.516C127.368 455.765 123.951 456.336 120.612 456.894C109.08 458.821 98.4868 460.592 89.4957 448.383C88.0703 446.447 87.6893 441.141 93.9367 439.595C109.501 435.744 132.933 427.491 137.201 423.405Z" fill="#915B3C"/>
<path fill-rule="evenodd" clip-rule="evenodd" d="M355.714 208.713L371.148 211.896C372.17 286.284 393.971 362.171 436.554 439.555L367.717 479.947C333.425 380.229 323.841 287.599 355.714 208.713Z" fill="#191847"/>
<path fill-rule="evenodd" clip-rule="evenodd" d="M222.73 372.037L351.674 423.28C351.674 423.28 348.691 292.666 377.927 213.818L341.256 192.36C291.813 231.114 259.943 290.354 222.73 372.037Z" fill="#DDE3E9"/>
<path fill-rule="evenodd" clip-rule="evenodd" d="M142.904 405.961C218.082 246.846 340.401 192.021 340.401 192.021L340.422 192.061C340.43 192.054 340.439 192.046 340.448 192.039L342.986 193.048C347.483 195.021 356.652 199.15 356.652 199.15L355.739 230.694C338.373 282.145 297.15 442.603 297.15 442.603L212.748 409.062C210.272 416.186 207.932 423.479 205.753 430.937L142.904 405.961Z" fill="#2F3676"/>
<path fill-rule="evenodd" clip-rule="evenodd" d="M212.509 409.751C223.247 378.708 236.598 350.86 250.693 326.458C241.488 358.402 232.452 397.651 236.023 419.095L212.509 409.751Z" fill="black" fill-opacity="0.1"/>
<path fill-rule="evenodd" clip-rule="evenodd" d="M251.114 363.424L300.232 359.926L292.793 379.988L251.114 363.424Z" fill="white" fill-opacity="0.2"/>
</svg>
