<svg width="619" height="922" viewBox="0 0 619 922" fill="none" xmlns="http://www.w3.org/2000/svg">
<path fill-rule="evenodd" clip-rule="evenodd" d="M296.276 147.595C281.849 155.251 267.674 158.95 261.019 157.44C244.334 153.653 242.8 99.9111 255.71 78.7243C268.621 57.5375 334.991 48.3029 338.337 90.2807C339.498 104.85 332.549 117.852 322.283 128.461L340.691 204H287.221L296.276 147.595Z" fill="#B28B67"/>
<path fill-rule="evenodd" clip-rule="evenodd" d="M326.392 137.911C333.103 111.624 352.222 93.7054 349.302 81.9564C346.382 70.2074 333.737 67.3438 333.737 67.3438C333.737 67.3438 327.197 44.0506 291.553 47.5288C255.908 51.007 234.152 64.0398 243.547 92.7177C252.184 92.7177 262.61 89.9679 277.027 94.6793C283.888 96.9216 286.842 108.587 286.842 108.587H293.357C293.357 108.587 302.841 94.7434 312.06 98.4127C321.279 102.082 316.252 116.238 316.252 116.238L319.461 137.911H326.392Z" fill="#191847"/>
<path fill-rule="evenodd" clip-rule="evenodd" d="M354.893 407.533L277.248 672.353L239.635 897.565H210.144L249.888 407.533H354.893Z" fill="#997659"/>
<path fill-rule="evenodd" clip-rule="evenodd" d="M382.67 407.533C377.397 552.933 383.603 627.933 384.784 641.143C385.964 654.354 402.127 740.01 440.39 901.999L408.965 890.74C348.493 742.171 327.887 664.957 320.951 645.449C314.015 625.94 295.594 546.634 265.688 407.533H382.67Z" fill="#B28B67"/>
<path fill-rule="evenodd" clip-rule="evenodd" d="M436.495 887.193C437.57 886.667 438.875 887.157 439.287 888.281C440.725 892.202 443.617 900.632 443.617 905.007C443.617 910.83 441.757 922 441.757 922C435.283 922 325.381 922 325.381 922C325.381 922 320.845 906.355 330.619 905.107C340.392 903.86 346.857 902.854 346.857 902.854L401.924 877.243C402.446 877.001 403.064 877.247 403.276 877.782L407.172 887.642C407.172 887.642 416.219 892.046 421.876 892.046C426.037 892.046 433.068 888.872 436.495 887.193Z" fill="#E4E4E4"/>
<path fill-rule="evenodd" clip-rule="evenodd" d="M242.542 887.193C243.617 886.667 244.922 887.157 245.334 888.281C246.772 892.202 249.663 900.632 249.663 905.007C249.663 910.83 247.804 922 247.804 922C241.329 922 131.428 922 131.428 922C131.428 922 126.892 906.355 136.665 905.107C146.439 903.86 152.903 902.854 152.903 902.854L207.97 877.243C208.492 877.001 209.111 877.247 209.322 877.782L213.218 887.642C213.218 887.642 222.266 892.046 227.923 892.046C232.083 892.046 239.114 888.872 242.542 887.193Z" fill="#E4E4E4"/>
<path fill-rule="evenodd" clip-rule="evenodd" d="M365.21 407.533L332.197 542.456H231.361L246.396 407.533H365.21Z" fill="#69A1AC"/>
<path fill-rule="evenodd" clip-rule="evenodd" d="M383.78 407.533C400.074 458.486 389.97 542.456 389.97 542.456H287.071L258.776 407.533H383.78Z" fill="#89C5CC"/>
<path fill-rule="evenodd" clip-rule="evenodd" d="M114.778 432.842L173.228 373.355L192.642 408.399L131.861 445.784C116.621 470.829 107.671 481.651 105.009 478.249C102.765 475.38 103.794 472.236 104.741 469.34C105.479 467.084 106.168 464.978 105.222 463.271C103.062 459.371 90.8589 461.605 79.3656 464.24C67.8723 466.876 70.5317 460.986 72.9745 457.912C83.837 448.767 97.7716 440.41 114.778 432.842ZM459.302 519.27C453.256 506.472 432.665 381.745 432.665 381.745L389.546 381.922C389.546 381.922 429.482 516.416 432.665 524.645C436.799 535.336 429.776 550.868 425.013 561.399C424.277 563.029 423.594 564.539 423.015 565.892C429.623 568.977 432.798 565.248 436.144 561.317C439.924 556.877 443.924 552.179 453.339 556.749C456.977 558.514 460.419 560.602 463.782 562.641C475.399 569.685 486.07 576.157 500.587 566.812C502.889 565.33 505.411 559.752 499.317 555.393C484.136 544.533 462.258 525.526 459.302 519.27Z" fill="#B28B67"/>
<path fill-rule="evenodd" clip-rule="evenodd" d="M310.129 192.989L292.287 189.797C261.569 269.852 207.939 342.592 131.396 408.017L189.236 481.326C265.77 388.169 312.945 292.057 310.129 192.989Z" fill="#191847"/>
<path fill-rule="evenodd" clip-rule="evenodd" d="M387.907 426.906H229.03C229.03 426.906 284.242 286.854 284.242 188.961L332.167 181.512C369.832 244.708 380.469 322.516 387.907 426.906Z" fill="#DDE3E9"/>
<path fill-rule="evenodd" clip-rule="evenodd" d="M460.123 497.941C442.748 293.437 333.22 181.512 333.22 181.512L333.182 181.547C333.176 181.535 333.169 181.523 333.163 181.512H330.035C324.42 181.713 312.93 182.239 312.93 182.239L301.349 216.764C299.512 279.907 279.889 471.262 279.889 471.262H383.883C383.706 480.036 383.315 488.933 382.685 497.941H460.123Z" fill="#2F3676"/>
<path fill-rule="evenodd" clip-rule="evenodd" d="M383.866 472.11C384.696 433.903 381.447 398.027 376.027 365.562C373.192 404.086 367.267 450.441 354.893 472.11H383.866Z" fill="black" fill-opacity="0.1"/>
<path fill-rule="evenodd" clip-rule="evenodd" d="M360.854 405.38L309.5 380.473V405.38H360.854Z" fill="white" fill-opacity="0.2"/>
</svg>
